<svg width="133" height="14" viewBox="0 0 133 14" fill="none" xmlns="http://www.w3.org/2000/svg">
<path d="M2.76417e-06 11.5323V0.623227H4.3679C5.17046 0.623227 5.83985 0.74219 6.37607 0.980116C6.91229 1.21804 7.31534 1.5483 7.58523 1.97088C7.85512 2.38992 7.99006 2.87287 7.99006 3.41975C7.99006 3.84588 7.90483 4.22053 7.73438 4.54368C7.56392 4.86328 7.32955 5.12607 7.03125 5.33203C6.73651 5.53445 6.39915 5.67827 6.01918 5.7635V5.87003C6.43466 5.88779 6.82351 6.00497 7.18573 6.22159C7.55149 6.43821 7.84801 6.74183 8.07529 7.13246C8.30256 7.51953 8.4162 7.98118 8.4162 8.5174C8.4162 9.09624 8.27238 9.61293 7.98473 10.0675C7.70064 10.5185 7.27983 10.8754 6.7223 11.1381C6.16478 11.4009 5.47763 11.5323 4.66087 11.5323H2.76417e-06ZM2.30647 9.64666H4.18679C4.82955 9.64666 5.2983 9.52415 5.59304 9.27912C5.88779 9.03054 6.03516 8.70029 6.03516 8.28835C6.03516 7.98651 5.96236 7.72017 5.81676 7.48935C5.67117 7.25853 5.46343 7.07742 5.19354 6.94603C4.9272 6.81463 4.60938 6.74894 4.24006 6.74894H2.30647V9.64666ZM2.30647 5.18821H4.01634C4.33239 5.18821 4.61293 5.13317 4.85796 5.02308C5.10654 4.90945 5.30185 4.74965 5.44389 4.54368C5.58949 4.33772 5.66229 4.09091 5.66229 3.80327C5.66229 3.40909 5.52202 3.09127 5.24148 2.84979C4.96449 2.60831 4.57032 2.48757 4.05895 2.48757H2.30647V5.18821ZM12.2235 0.623227V11.5323H9.91699V0.623227H12.2235ZM16.98 0.111863L13.4644 13.1729H12.3139L15.8295 0.111863H16.98ZM27.0926 6.07777C27.0926 7.2674 26.8671 8.27948 26.4161 9.11399C25.9687 9.94851 25.3579 10.5859 24.5838 11.0263C23.8132 11.4631 22.9467 11.6815 21.9843 11.6815C21.0149 11.6815 20.1448 11.4613 19.3742 11.021C18.6036 10.5806 17.9946 9.94318 17.5472 9.10867C17.0997 8.27415 16.876 7.26385 16.876 6.07777C16.876 4.88814 17.0997 3.87607 17.5472 3.04155C17.9946 2.20703 18.6036 1.57138 19.3742 1.13459C20.1448 0.69425 21.0149 0.474079 21.9843 0.474079C22.9467 0.474079 23.8132 0.69425 24.5838 1.13459C25.3579 1.57138 25.9687 2.20703 26.4161 3.04155C26.8671 3.87607 27.0926 4.88814 27.0926 6.07777ZM24.7542 6.07777C24.7542 5.30718 24.6388 4.65732 24.408 4.1282C24.1807 3.59908 23.8593 3.1978 23.4438 2.92436C23.0284 2.65093 22.5419 2.51421 21.9843 2.51421C21.4268 2.51421 20.9403 2.65093 20.5248 2.92436C20.1093 3.1978 19.7862 3.59908 19.5553 4.1282C19.3281 4.65732 19.2144 5.30718 19.2144 6.07777C19.2144 6.84837 19.3281 7.49823 19.5553 8.02735C19.7862 8.55647 20.1093 8.95774 20.5248 9.23118C20.9403 9.50462 21.4268 9.64134 21.9843 9.64134C22.5419 9.64134 23.0284 9.50462 23.4438 9.23118C23.8593 8.95774 24.1807 8.55647 24.408 8.02735C24.6388 7.49823 24.7542 6.84837 24.7542 6.07777ZM34.7191 3.76066C34.6765 3.33097 34.4936 2.99716 34.1705 2.75924C33.8473 2.52131 33.4088 2.40235 32.8548 2.40235C32.4784 2.40235 32.1605 2.45561 31.9013 2.56215C31.6421 2.66513 31.4432 2.80895 31.3047 2.99361C31.1698 3.17827 31.1023 3.38779 31.1023 3.62216C31.0952 3.81747 31.136 3.98793 31.2248 4.13353C31.3172 4.27912 31.4432 4.40519 31.603 4.51172C31.7628 4.6147 31.9475 4.70526 32.157 4.78338C32.3665 4.85796 32.5902 4.92188 32.8282 4.97514L33.8083 5.20952C34.2841 5.31605 34.7209 5.4581 35.1186 5.63566C35.5164 5.81321 35.8608 6.03161 36.152 6.29084C36.4432 6.55007 36.6687 6.85547 36.8285 7.20703C36.9919 7.5586 37.0753 7.96165 37.0789 8.4162C37.0753 9.08381 36.9049 9.66264 36.5675 10.1527C36.2337 10.6392 35.7507 11.0174 35.1186 11.2873C34.4901 11.5536 33.7319 11.6868 32.8441 11.6868C31.9635 11.6868 31.1964 11.5518 30.543 11.282C29.8931 11.0121 29.3853 10.6126 29.0196 10.0835C28.6574 9.55078 28.4674 8.89205 28.4496 8.10725H30.6815C30.7064 8.47301 30.8111 8.77841 30.9958 9.02344C31.184 9.26492 31.4343 9.4478 31.7468 9.57209C32.0629 9.69283 32.4198 9.7532 32.8175 9.7532C33.2081 9.7532 33.5473 9.69638 33.8349 9.58274C34.1261 9.46911 34.3516 9.31108 34.5114 9.10867C34.6712 8.90625 34.7511 8.67365 34.7511 8.41087C34.7511 8.16584 34.6783 7.95987 34.5327 7.79297C34.3907 7.62607 34.1811 7.48402 33.9042 7.36683C33.6307 7.24965 33.2951 7.14311 32.8974 7.04723L31.7096 6.74894C30.7898 6.52522 30.0636 6.17543 29.5309 5.69958C28.9983 5.22372 28.7337 4.58274 28.7373 3.77664C28.7337 3.11612 28.9095 2.53907 29.2646 2.04546C29.6233 1.55185 30.1151 1.16655 30.7401 0.889562C31.3651 0.612573 32.0753 0.474079 32.8708 0.474079C33.6804 0.474079 34.3871 0.612573 34.9908 0.889562C35.598 1.16655 36.0703 1.55185 36.4077 2.04546C36.7451 2.53907 36.9191 3.1108 36.9297 3.76066H34.7191ZM51.7273 4.44247H49.3942C49.3516 4.14063 49.2646 3.87252 49.1332 3.63814C49.0018 3.40022 48.8331 3.1978 48.6272 3.0309C48.4212 2.86399 48.1833 2.73615 47.9134 2.64737C47.6471 2.5586 47.3576 2.51421 47.0451 2.51421C46.4805 2.51421 45.9887 2.65448 45.5696 2.93502C45.1506 3.21201 44.8257 3.61683 44.5949 4.14951C44.364 4.67862 44.2486 5.32138 44.2486 6.07777C44.2486 6.85547 44.364 7.50888 44.5949 8.038C44.8292 8.56712 45.1559 8.96662 45.575 9.23651C45.994 9.50639 46.4787 9.64134 47.0292 9.64134C47.3381 9.64134 47.624 9.6005 47.8868 9.51882C48.1531 9.43715 48.3892 9.31818 48.5952 9.16193C48.8012 9.00213 48.9716 8.8086 49.1066 8.58132C49.2451 8.35405 49.3409 8.09482 49.3942 7.80362L51.7273 7.81428C51.6669 8.31499 51.516 8.79794 51.2745 9.26314C51.0366 9.72479 50.7152 10.1385 50.3104 10.5043C49.9091 10.8665 49.4297 11.1541 48.8722 11.3672C48.3182 11.5767 47.6914 11.6815 46.9919 11.6815C46.0189 11.6815 45.1488 11.4613 44.3818 11.021C43.6183 10.5806 43.0146 9.94318 42.5707 9.10867C42.1304 8.27415 41.9102 7.26385 41.9102 6.07777C41.9102 4.88814 42.1339 3.87607 42.5814 3.04155C43.0288 2.20703 43.636 1.57138 44.4031 1.13459C45.1701 0.69425 46.0331 0.474079 46.9919 0.474079C47.624 0.474079 48.2099 0.562858 48.7497 0.740414C49.293 0.917971 49.7742 1.1772 50.1932 1.51811C50.6123 1.85547 50.9532 2.26918 51.2159 2.75924C51.4823 3.24929 51.6527 3.81037 51.7273 4.44247ZM57.0354 11.6921C56.2079 11.6921 55.4924 11.5163 54.8887 11.1648C54.2886 10.8097 53.8251 10.3161 53.4984 9.68395C53.1717 9.0483 53.0084 8.31144 53.0084 7.47337C53.0084 6.6282 53.1717 5.88956 53.4984 5.25746C53.8251 4.62181 54.2886 4.1282 54.8887 3.77664C55.4924 3.42152 56.2079 3.24397 57.0354 3.24397C57.8628 3.24397 58.5766 3.42152 59.1767 3.77664C59.7804 4.1282 60.2456 4.62181 60.5723 5.25746C60.899 5.88956 61.0624 6.6282 61.0624 7.47337C61.0624 8.31144 60.899 9.0483 60.5723 9.68395C60.2456 10.3161 59.7804 10.8097 59.1767 11.1648C58.5766 11.5163 57.8628 11.6921 57.0354 11.6921ZM57.046 9.93431C57.4224 9.93431 57.7367 9.82777 57.9888 9.6147C58.241 9.39809 58.431 9.10334 58.5588 8.73047C58.6902 8.3576 58.7559 7.93324 58.7559 7.45739C58.7559 6.98154 58.6902 6.55718 58.5588 6.18431C58.431 5.81144 58.241 5.51669 57.9888 5.30007C57.7367 5.08345 57.4224 4.97514 57.046 4.97514C56.666 4.97514 56.3464 5.08345 56.0872 5.30007C55.8315 5.51669 55.638 5.81144 55.5066 6.18431C55.3788 6.55718 55.3148 6.98154 55.3148 7.45739C55.3148 7.93324 55.3788 8.3576 55.5066 8.73047C55.638 9.10334 55.8315 9.39809 56.0872 9.6147C56.3464 9.82777 56.666 9.93431 57.046 9.93431ZM64.807 6.8022V11.5323H62.5378V3.3505H64.7005V4.79404H64.7964C64.9775 4.31818 65.2811 3.94176 65.7072 3.66478C66.1334 3.38424 66.6501 3.24397 67.2573 3.24397C67.8255 3.24397 68.3209 3.36826 68.7435 3.61683C69.166 3.86541 69.4945 4.22053 69.7289 4.68218C69.9633 5.14027 70.0805 5.68715 70.0805 6.3228V11.5323H67.8113V6.72763C67.8148 6.22692 67.687 5.8363 67.4278 5.55576C67.1685 5.27166 66.8116 5.12962 66.3571 5.12962C66.0517 5.12962 65.7818 5.19532 65.5474 5.32671C65.3166 5.4581 65.1355 5.64986 65.0041 5.90199C64.8763 6.15057 64.8106 6.45064 64.807 6.8022ZM76.2688 3.3505V5.05505H71.219V3.3505H76.2688ZM72.3749 11.5323V2.75924C72.3749 2.1662 72.4904 1.67436 72.7212 1.28374C72.9556 0.893113 73.2752 0.600144 73.68 0.404832C74.0848 0.209519 74.5447 0.111863 75.0596 0.111863C75.4076 0.111863 75.7254 0.138497 76.0131 0.191764C76.3043 0.245031 76.5209 0.292971 76.6629 0.335585L76.2581 2.04013C76.1693 2.01172 76.0592 1.98509 75.9279 1.96023C75.8 1.93537 75.6686 1.92294 75.5337 1.92294C75.1999 1.92294 74.9673 2.00107 74.8359 2.15732C74.7045 2.31002 74.6388 2.52486 74.6388 2.80185V11.5323H72.3749ZM81.0908 11.6921C80.2491 11.6921 79.5247 11.5217 78.9175 11.1808C78.3138 10.8363 77.8486 10.3498 77.5219 9.72124C77.1952 9.08914 77.0318 8.34162 77.0318 7.4787C77.0318 6.63708 77.1952 5.89844 77.5219 5.26279C77.8486 4.62713 78.3084 4.13175 78.9015 3.77664C79.4981 3.42152 80.1976 3.24397 81.0002 3.24397C81.54 3.24397 82.0425 3.33097 82.5077 3.50497C82.9764 3.67543 83.3848 3.93289 83.7328 4.27735C84.0844 4.62181 84.3578 5.05505 84.5531 5.57706C84.7484 6.09553 84.8461 6.70277 84.8461 7.3988V8.02202H77.9374V6.61577H82.7101C82.7101 6.28907 82.6391 5.99965 82.497 5.74752C82.355 5.49539 82.1579 5.2983 81.9057 5.15625C81.6572 5.01066 81.3677 4.93786 81.0375 4.93786C80.693 4.93786 80.3876 5.01776 80.1213 5.17756C79.8585 5.33381 79.6526 5.5451 79.5034 5.81144C79.3543 6.07422 79.2779 6.36719 79.2744 6.69034V8.02735C79.2744 8.43218 79.3489 8.78196 79.4981 9.07671C79.6508 9.37145 79.8656 9.59872 80.1426 9.75853C80.4196 9.91833 80.7481 9.99823 81.128 9.99823C81.3802 9.99823 81.611 9.96272 81.8205 9.89169C82.03 9.82067 82.2094 9.71414 82.3585 9.57209C82.5077 9.43005 82.6213 9.25604 82.6994 9.05007L84.7981 9.18857C84.6916 9.69283 84.4732 10.1332 84.143 10.5096C83.8163 10.8825 83.3937 11.1737 82.8752 11.3832C82.3603 11.5891 81.7655 11.6921 81.0908 11.6921ZM93.1344 5.6836L91.057 5.81144C91.0215 5.63388 90.9452 5.47408 90.828 5.33203C90.7108 5.18644 90.5563 5.07103 90.3646 4.9858C90.1763 4.89702 89.9508 4.85263 89.6881 4.85263C89.3365 4.85263 89.04 4.9272 88.7985 5.07635C88.557 5.22195 88.4363 5.41726 88.4363 5.66229C88.4363 5.8576 88.5144 6.02273 88.6707 6.15767C88.8269 6.29262 89.095 6.40093 89.475 6.4826L90.9558 6.7809C91.7513 6.94425 92.3443 7.20703 92.7349 7.56925C93.1256 7.93147 93.3209 8.40732 93.3209 8.99681C93.3209 9.53303 93.1628 10.0036 92.8468 10.4084C92.5343 10.8132 92.1046 11.1293 91.5577 11.3565C91.0144 11.5803 90.3876 11.6921 89.6774 11.6921C88.5943 11.6921 87.7314 11.4666 87.0886 11.0156C86.4494 10.5611 86.0748 9.94318 85.9647 9.16193L88.1966 9.04475C88.2641 9.375 88.4274 9.62713 88.6866 9.80114C88.9459 9.97159 89.2779 10.0568 89.6827 10.0568C90.0805 10.0568 90.4001 9.98047 90.6415 9.82777C90.8866 9.67152 91.0109 9.47088 91.0144 9.22586C91.0109 9.01989 90.9239 8.85121 90.7534 8.71982C90.5829 8.58487 90.3202 8.48189 89.9651 8.41087L88.5481 8.12855C87.7491 7.96875 87.1543 7.69176 86.7637 7.29759C86.3766 6.90341 86.1831 6.40093 86.1831 5.79013C86.1831 5.26456 86.3251 4.81179 86.6092 4.43182C86.8969 4.05185 87.2999 3.75888 87.8184 3.55291C88.3404 3.34695 88.9512 3.24397 89.6508 3.24397C90.6842 3.24397 91.4974 3.46236 92.0904 3.89915C92.687 4.33594 93.035 4.93076 93.1344 5.6836ZM101.557 5.6836L99.4799 5.81144C99.4444 5.63388 99.368 5.47408 99.2508 5.33203C99.1336 5.18644 98.9792 5.07103 98.7874 4.9858C98.5992 4.89702 98.3737 4.85263 98.1109 4.85263C97.7594 4.85263 97.4628 4.9272 97.2214 5.07635C96.9799 5.22195 96.8591 5.41726 96.8591 5.66229C96.8591 5.8576 96.9373 6.02273 97.0935 6.15767C97.2498 6.29262 97.5179 6.40093 97.8978 6.4826L99.3787 6.7809C100.174 6.94425 100.767 7.20703 101.158 7.56925C101.548 7.93147 101.744 8.40732 101.744 8.99681C101.744 9.53303 101.586 10.0036 101.27 10.4084C100.957 10.8132 100.527 11.1293 99.9806 11.3565C99.4373 11.5803 98.8105 11.6921 98.1003 11.6921C97.0172 11.6921 96.1542 11.4666 95.5115 11.0156C94.8723 10.5611 94.4976 9.94318 94.3875 9.16193L96.6194 9.04475C96.6869 9.375 96.8503 9.62713 97.1095 9.80114C97.3687 9.97159 97.7008 10.0568 98.1056 10.0568C98.5033 10.0568 98.8229 9.98047 99.0644 9.82777C99.3094 9.67152 99.4337 9.47088 99.4373 9.22586C99.4337 9.01989 99.3467 8.85121 99.1763 8.71982C99.0058 8.58487 98.743 8.48189 98.3879 8.41087L96.971 8.12855C96.172 7.96875 95.5772 7.69176 95.1866 7.29759C94.7995 6.90341 94.6059 6.40093 94.6059 5.79013C94.6059 5.26456 94.748 4.81179 95.0321 4.43182C95.3197 4.05185 95.7228 3.75888 96.2412 3.55291C96.7633 3.34695 97.3741 3.24397 98.0736 3.24397C99.107 3.24397 99.9202 3.46236 100.513 3.89915C101.11 4.33594 101.458 4.93076 101.557 5.6836ZM103.173 11.5323V3.3505H105.442V11.5323H103.173ZM104.313 2.29581C103.975 2.29581 103.686 2.18395 103.444 1.96023C103.206 1.73296 103.087 1.4613 103.087 1.14524C103.087 0.832744 103.206 0.564633 103.444 0.340912C103.686 0.113639 103.975 2.20537e-06 104.313 2.20537e-06C104.65 2.20537e-06 104.938 0.113639 105.175 0.340912C105.417 0.564633 105.538 0.832744 105.538 1.14524C105.538 1.4613 105.417 1.73296 105.175 1.96023C104.938 2.18395 104.65 2.29581 104.313 2.29581ZM110.956 11.6921C110.129 11.6921 109.413 11.5163 108.81 11.1648C108.209 10.8097 107.746 10.3161 107.419 9.68395C107.093 9.0483 106.929 8.31144 106.929 7.47337C106.929 6.6282 107.093 5.88956 107.419 5.25746C107.746 4.62181 108.209 4.1282 108.81 3.77664C109.413 3.42152 110.129 3.24397 110.956 3.24397C111.784 3.24397 112.497 3.42152 113.098 3.77664C113.701 4.1282 114.166 4.62181 114.493 5.25746C114.82 5.88956 114.983 6.6282 114.983 7.47337C114.983 8.31144 114.82 9.0483 114.493 9.68395C114.166 10.3161 113.701 10.8097 113.098 11.1648C112.497 11.5163 111.784 11.6921 110.956 11.6921ZM110.967 9.93431C111.343 9.93431 111.658 9.82777 111.91 9.6147C112.162 9.39809 112.352 9.10334 112.48 8.73047C112.611 8.3576 112.677 7.93324 112.677 7.45739C112.677 6.98154 112.611 6.55718 112.48 6.18431C112.352 5.81144 112.162 5.51669 111.91 5.30007C111.658 5.08345 111.343 4.97514 110.967 4.97514C110.587 4.97514 110.267 5.08345 110.008 5.30007C109.752 5.51669 109.559 5.81144 109.427 6.18431C109.3 6.55718 109.236 6.98154 109.236 7.45739C109.236 7.93324 109.3 8.3576 109.427 8.73047C109.559 9.10334 109.752 9.39809 110.008 9.6147C110.267 9.82777 110.587 9.93431 110.967 9.93431ZM118.728 6.8022V11.5323H116.459V3.3505H118.621V4.79404H118.717C118.898 4.31818 119.202 3.94176 119.628 3.66478C120.054 3.38424 120.571 3.24397 121.178 3.24397C121.746 3.24397 122.242 3.36826 122.664 3.61683C123.087 3.86541 123.415 4.22053 123.65 4.68218C123.884 5.14027 124.001 5.68715 124.001 6.3228V11.5323H121.732V6.72763C121.736 6.22692 121.608 5.8363 121.349 5.55576C121.089 5.27166 120.733 5.12962 120.278 5.12962C119.973 5.12962 119.703 5.19532 119.468 5.32671C119.238 5.4581 119.056 5.64986 118.925 5.90199C118.797 6.15057 118.731 6.45064 118.728 6.8022ZM132.597 5.6836L130.52 5.81144C130.484 5.63388 130.408 5.47408 130.291 5.33203C130.174 5.18644 130.019 5.07103 129.827 4.9858C129.639 4.89702 129.414 4.85263 129.151 4.85263C128.799 4.85263 128.503 4.9272 128.261 5.07635C128.02 5.22195 127.899 5.41726 127.899 5.66229C127.899 5.8576 127.977 6.02273 128.134 6.15767C128.29 6.29262 128.558 6.40093 128.938 6.4826L130.419 6.7809C131.214 6.94425 131.807 7.20703 132.198 7.56925C132.588 7.93147 132.784 8.40732 132.784 8.99681C132.784 9.53303 132.626 10.0036 132.31 10.4084C131.997 10.8132 131.568 11.1293 131.021 11.3565C130.477 11.5803 129.851 11.6921 129.14 11.6921C128.057 11.6921 127.194 11.4666 126.552 11.0156C125.912 10.5611 125.538 9.94318 125.428 9.16193L127.659 9.04475C127.727 9.375 127.89 9.62713 128.15 9.80114C128.409 9.97159 128.741 10.0568 129.146 10.0568C129.543 10.0568 129.863 9.98047 130.104 9.82777C130.349 9.67152 130.474 9.47088 130.477 9.22586C130.474 9.01989 130.387 8.85121 130.216 8.71982C130.046 8.58487 129.783 8.48189 129.428 8.41087L128.011 8.12855C127.212 7.96875 126.617 7.69176 126.227 7.29759C125.84 6.90341 125.646 6.40093 125.646 5.79013C125.646 5.26456 125.788 4.81179 126.072 4.43182C126.36 4.05185 126.763 3.75888 127.281 3.55291C127.803 3.34695 128.414 3.24397 129.114 3.24397C130.147 3.24397 130.96 3.46236 131.553 3.89915C132.15 4.33594 132.498 4.93076 132.597 5.6836Z" fill="black"/>
</svg>
